<?xml version="1.0" encoding="UTF-8"?> <svg xmlns="http://www.w3.org/2000/svg" xmlns:xlink="http://www.w3.org/1999/xlink" version="1.1" id="Layer_1" x="0px" y="0px" viewBox="0 0 395.1 104.8" style="enable-background:new 0 0 395.1 104.8;" xml:space="preserve"> <style type="text/css"> .st0{fill:#FAFAFA;} </style> <g> <path class="st0" d="M14.3,76.3C6.1,76.3,0,82.4,0,90.6c0,8.1,6.1,14.3,14.3,14.3c8.1,0,14.3-6.1,14.3-14.3 C28.5,82.4,22.4,76.3,14.3,76.3z M25,90.6c0,6.2-4.6,10.9-10.7,10.9S3.5,96.8,3.5,90.6s4.6-10.9,10.7-10.9S25,84.4,25,90.6z"></path> <polygon class="st0" points="78.1,76.6 73.9,76.6 62.7,90.8 62.7,76.6 59.2,76.6 59.2,104.5 62.7,104.5 62.7,96 65.1,93.1 74.7,104.5 79.2,104.5 67.3,90.5 "></polygon> <polygon class="st0" points="111.2,76.6 107.7,76.6 107.7,104.5 123.7,104.5 123.7,101.2 111.2,101.2 "></polygon> <path class="st0" d="M163,76.3l-11.3,28.2h3.7l2-5h13l2,5h3.7l-11.3-28.2H163z M169,96.2h-10.4l5.2-13.1L169,96.2z"></path> <polygon class="st0" points="222,91.9 208.8,91.9 208.8,76.6 205.3,76.6 205.3,104.5 208.8,104.5 208.8,95.3 222,95.3 222,104.5 225.5,104.5 225.5,76.6 222,76.6 "></polygon> <path class="st0" d="M270.4,76.3c-8.1,0-14.3,6.1-14.3,14.3c0,8.1,6.1,14.3,14.3,14.3c8.1,0,14.3-6.1,14.3-14.3 C284.7,82.4,278.5,76.3,270.4,76.3z M270.4,101.5c-6.1,0-10.7-4.7-10.7-10.9s4.6-10.9,10.7-10.9s10.7,4.7,10.7,10.9 S276.5,101.5,270.4,101.5z"></path> <polygon class="st0" points="328.4,91.1 317.2,76.3 315.3,76.3 315.3,104.5 318.8,104.5 318.8,84 327.7,95.8 329.1,95.8 338.1,84 338.1,104.5 341.5,104.5 341.5,76.3 339.7,76.3 "></polygon> <path class="st0" d="M383.8,76.3H382l-11.3,28.2h3.7l2-5h13l2,5h3.7L383.8,76.3z M388.1,96.2h-10.4l5.2-13.1L388.1,96.2z"></path> </g> <path class="st0" d="M100.1,1.3h5.6l14.5,39.5c1.1,2.8,2,6.7,2,6.7s0.9-3.9,2.2-6.7l16.4-40h1.2l16.7,39.9c1.2,2.8,2.3,6.7,2.3,6.7 s0.8-3.9,1.9-6.7l14.5-39.4h5.4l-21.2,55.9h-1.3l-16.7-40.8c-1.1-2.6-2-6.3-2-6.3s-0.8,3.8-1.9,6.3l-16.9,40.8h-1.3L100.1,1.3z"></path> <path class="st0" d="M20.1,0.1L20.1,0.1C8.1,0.4,0,8.5,0,21.9v34.2h5.2V22.9C5.3,11.6,10.5,5,21,5c9.5,0.6,14.2,7.1,14.2,17.8v33.3 h5.2V21.9C40.5,8.3,32.3,0.1,20.1,0.1z"></path> <path class="st0" d="M76,52.5c9.1,0,15.2-3.6,19.2-8.6l3.5,3.1C93.9,53,86.2,57.2,76,57.2c-17.3,0-28.6-12.8-28.6-28.5 s12-28.6,27.5-28.6c16.7,0,27.1,13,26.9,29.7h-49C53.2,43.1,61.9,52.5,76,52.5z M96.4,25.5C95.6,14.2,88.6,4.7,74.9,4.7 c-12.5,0-20.7,8.9-22,20.8H96.4z"></path> <path class="st0" d="M243.6,1.3h5.2v54.8h-5.2V1.3z"></path> <path class="st0" d="M312.7,0.8h5.6l14.5,39.5c1.1,2.8,2,6.7,2,6.7s0.9-3.9,2.2-6.7l16.4-40h1.2l16.7,39.9c1.2,2.8,2.3,6.7,2.3,6.7 s0.8-3.9,1.9-6.7L390,0.8h5.4L374,56.6h-1.3L356,15.8c-1.1-2.6-2-6.3-2-6.3s-0.8,3.8-1.9,6.3l-16.9,40.8h-1.3L312.7,0.8z"></path> <path class="st0" d="M314.7,27l-4.9,1.3c0,0.2,0,0.4,0,0.6c0,13-10.6,23.6-23.6,23.6s-23.6-10.6-23.6-23.6s10.6-23.6,23.6-23.6 c6.7,0,12.7,2.8,17,7.3c-4.6,1-12,3-19.2,7c-9.9,5.4-15.1,11.9-15.4,12.2l-0.5,0.7l0.1,0.9c0,0.4,1.1,10.1,11.7,14.8v-0.1 c-0.9-0.8-3.3-3.2-5.2-6.5c-2.4-4.1-2-7.8-2-7.8c1.6-1.7,6.2-6.4,13.4-10.3c7.9-4.3,16.2-6.2,20.1-6.9c1.3-0.2,5.2-1,5.2-1 c-4.8-9-14.3-15-25.2-15c-15.8,0-28.6,12.8-28.6,28.6s12.8,28.6,28.6,28.6c15.8,0,28.6-12.8,28.6-28.6 C314.8,28.2,314.7,27.6,314.7,27z"></path> <path class="st0" d="M187.9,1.2h6.3l15.2,37.5c1.1,2.8,2.4,7.5,2.4,7.5s1.2-4.7,2.4-7.5l15.1-37.5h5.9l-23,55.9h-1L187.9,1.2z"></path> </svg> 